<svg width="10" height="10" viewBox="0 0 10 10" fill="none" xmlns="http://www.w3.org/2000/svg">
<path d="M4.14503 0.720818L0.380032 4.46882C0.0970316 4.75082 0.0970316 5.24982 0.380032 5.53282L4.14503 9.28082C4.43903 9.57282 4.91403 9.57182 5.20603 9.27782C5.49803 8.98382 5.49803 8.50982 5.20403 8.21682L2.72703 5.74982L9.08203 5.74982C9.49703 5.74982 9.83203 5.41382 9.83203 4.99982C9.83203 4.58582 9.49703 4.24982 9.08203 4.24982L2.72703 4.24982L5.20403 1.78382C5.35103 1.63682 5.42403 1.44482 5.42403 1.25182C5.42403 1.06082 5.35103 0.868818 5.20603 0.722818C4.91403 0.429818 4.43903 0.428818 4.14503 0.720818Z" fill="#828282"/>
</svg>
