<svg width="19" height="22" viewBox="0 0 19 22" fill="none" xmlns="http://www.w3.org/2000/svg">
  <path d="M3.92553 6.85106C3.92553 3.61961 6.54514 1 9.7766 1V1C13.008 1 15.6277 3.61961 15.6277 6.85106V9.35866C15.6277 10.2629 15.921 11.1428 16.4635 11.8663L17.6809 13.4894C18.167 14.1375 18.0238 15.0252 17.2788 15.3435C15.9658 15.9045 13.5696 16.6028 9.7766 16.6028C5.98364 16.6028 3.58739 15.9045 2.27444 15.3435C1.5294 15.0252 1.3862 14.1375 1.87231 13.4894L3.08967 11.8663C3.63224 11.1428 3.92553 10.2629 3.92553 9.35866V6.85106Z" stroke="#A3A4A7" stroke-width="1.5" stroke-linejoin="round"/>
  <path fill-rule="evenodd" clip-rule="evenodd" d="M7.36914 18.3831C7.5544 19.5458 8.56172 20.4344 9.7766 20.4344C10.9915 20.4344 11.9988 19.5458 12.1841 18.3831C11.4534 18.4472 10.6522 18.4844 9.7765 18.4844C8.9009 18.4844 8.09973 18.4472 7.36914 18.3831Z" fill="#A3A4A7"/>
  <path d="M7.36914 18.3831L7.43474 17.6359L6.47725 17.5519L6.62848 18.5011L7.36914 18.3831ZM12.1841 18.3831L12.9247 18.5011L13.076 17.5518L12.1185 17.6359L12.1841 18.3831ZM9.7766 19.6844C8.93618 19.6844 8.23796 19.0695 8.1098 18.2651L6.62848 18.5011C6.87083 20.0221 8.18727 21.1844 9.7766 21.1844V19.6844ZM11.4434 18.2651C11.3152 19.0695 10.617 19.6844 9.7766 19.6844V21.1844C11.3659 21.1844 12.6824 20.0221 12.9247 18.5011L11.4434 18.2651ZM12.1185 17.6359C11.4102 17.6981 10.6309 17.7344 9.7765 17.7344V19.2344C10.6735 19.2344 11.4966 19.1963 12.2497 19.1302L12.1185 17.6359ZM9.7765 17.7344C8.92217 17.7344 8.1429 17.6981 7.43474 17.6359L7.30354 19.1302C8.05657 19.1963 8.87963 19.2344 9.7765 19.2344V17.7344Z" fill="#A3A4A7"/>
</svg>
