<svg width="20" height="22" viewBox="0 0 20 22" fill="none" xmlns="http://www.w3.org/2000/svg">
<path fill-rule="evenodd" clip-rule="evenodd" d="M14.75 1C14.75 0.585786 14.4142 0.25 14 0.25C13.5858 0.25 13.25 0.585786 13.25 1V2.25H6.75V1C6.75 0.585786 6.41421 0.25 6 0.25C5.58579 0.25 5.25 0.585786 5.25 1V2.25H3C1.48122 2.25 0.25 3.48122 0.25 5V9V19C0.25 20.5188 1.48122 21.75 3 21.75H17C18.5188 21.75 19.75 20.5188 19.75 19V9V5C19.75 3.48122 18.5188 2.25 17 2.25H14.75V1ZM18.25 8.25V5C18.25 4.30964 17.6904 3.75 17 3.75H14.75V5C14.75 5.41421 14.4142 5.75 14 5.75C13.5858 5.75 13.25 5.41421 13.25 5V3.75H6.75V5C6.75 5.41421 6.41421 5.75 6 5.75C5.58579 5.75 5.25 5.41421 5.25 5V3.75H3C2.30964 3.75 1.75 4.30964 1.75 5V8.25H18.25ZM1.75 9.75H18.25V19C18.25 19.6904 17.6904 20.25 17 20.25H3C2.30964 20.25 1.75 19.6904 1.75 19V9.75Z" fill="#4F4F4F"/>
</svg>
