<svg width="18" height="18" viewBox="0 0 18 18" fill="none" xmlns="http://www.w3.org/2000/svg">
<mask id="path-1-inside-1" fill="white">
<rect x="18" width="8" height="11" rx="1" transform="rotate(90 18 0)"/>
</mask>
<rect x="18" width="8" height="11" rx="1" transform="rotate(90 18 0)" fill="white" stroke="white" stroke-width="3" stroke-linecap="round" stroke-linejoin="round" mask="url(#path-1-inside-1)"/>
<mask id="path-2-inside-2" fill="white">
<rect x="11" y="10" width="8" height="11" rx="1" transform="rotate(90 11 10)"/>
</mask>
<rect x="11" y="10" width="8" height="11" rx="1" transform="rotate(90 11 10)" fill="white" stroke="white" stroke-width="3" stroke-linecap="round" stroke-linejoin="round" mask="url(#path-2-inside-2)"/>
<mask id="path-3-inside-3" fill="white">
<rect x="18" y="10" width="8" height="5" rx="1" transform="rotate(90 18 10)"/>
</mask>
<rect x="18" y="10" width="8" height="5" rx="1" transform="rotate(90 18 10)" fill="white" stroke="white" stroke-width="3" stroke-linecap="round" stroke-linejoin="round" mask="url(#path-3-inside-3)"/>
<mask id="path-4-inside-4" fill="white">
<rect x="5" width="8" height="5" rx="1" transform="rotate(90 5 0)"/>
</mask>
<rect x="5" width="8" height="5" rx="1" transform="rotate(90 5 0)" fill="white" stroke="white" stroke-width="3" stroke-linecap="round" stroke-linejoin="round" mask="url(#path-4-inside-4)"/>
</svg>
