<svg width="37" height="42" viewBox="0 0 37 42" fill="none" xmlns="http://www.w3.org/2000/svg">
<path d="M35.854 30.128C33.6044 27.6906 30.8745 25.7455 27.8362 24.4151C24.7978 23.0847 21.5169 22.3978 18.2 22.3978C14.8832 22.3978 11.6022 23.0847 8.56389 24.4151C5.52554 25.7455 2.7956 27.6906 0.546 30.128C0.198683 30.5121 0.00439921 31.0102 0 31.528V39.928C0.00736183 40.4801 0.231857 41.0071 0.624889 41.3949C1.01792 41.7827 1.54786 42.0001 2.1 42H34.3C34.857 42 35.3911 41.7788 35.785 41.3849C36.1788 40.9911 36.4 40.457 36.4 39.9V31.5C36.3889 30.9919 36.195 30.5048 35.854 30.128Z" fill="#BDBDBD"/>
<path d="M18.1999 19.6C23.6123 19.6 27.9999 15.2124 27.9999 9.80001C27.9999 4.38761 23.6123 0 18.1999 0C12.7875 0 8.3999 4.38761 8.3999 9.80001C8.3999 15.2124 12.7875 19.6 18.1999 19.6Z" fill="#BDBDBD"/>
</svg>
