<?xml version="1.0" ?><!DOCTYPE svg  PUBLIC '-//W3C//DTD SVG 1.1//EN'  'http://www.w3.org/Graphics/SVG/1.1/DTD/svg11.dtd'><svg enable-background="new 0 0 100 100" height="100px" id="Layer_1" version="1.1" viewBox="0 0 100 100" width="100px" xml:space="preserve" xmlns="http://www.w3.org/2000/svg" xmlns:xlink="http://www.w3.org/1999/xlink"><g><defs><rect height="100" id="SVGID_1_" width="100"/></defs><path d="M74.521,5.058c-6.431-0.272-9.595,0.393-13.406,2.298c-5.045,2.511-8.17,7.65-11.011,14.128   c-3.89-6.813-6.188-11.518-11.871-14.324c-3.448-1.709-6.985-2.638-14.239-1.673c-5.72,1.307-11.786,5.577-13.11,15.267   c-0.982,3.442-0.28,10.742,4.522,17.911c1.443,2.158,3.11,5.194,5.52,8.461c4.789,6.501,11.089,14.149,14.371,19.28   c8.251,12.901,9.528,15.066,12.03,20.912c0.415,0.82,2.496,6.861,2.915,7.683c2.43-11.007,11.706-26.505,23.052-39.858   c11.578-13.625,20.247-29.207,14.254-40.048C84.924,9.516,80.209,6.583,74.521,5.058"/></g></svg>