<svg width="24" height="24" viewBox="0 0 24 24" fill="none" xmlns="http://www.w3.org/2000/svg">
  <path d="M19.3846 20.709H4.61538C3.9331 20.709 3.41136 20.1472 3.41136 19.505V4.73581C3.41136 4.05353 3.97323 3.53179 4.61538 3.53179H19.3846C20.0669 3.53179 20.5886 4.09366 20.5886 4.73581V19.505C20.5886 20.1873 20.0669 20.709 19.3846 20.709Z" stroke="#A3A4A7" stroke-width="1.5" stroke-miterlimit="10" stroke-linecap="round" stroke-linejoin="round"/>
  <path d="M9.51168 10.0736C9.51168 8.62878 10.6756 7.50504 12.0802 7.50504C13.4849 7.50504 14.6488 8.66891 14.6488 10.0736C14.6488 11.4783 13.4849 12.6422 12.0802 12.6422V14.9298" stroke="#A3A4A7" stroke-width="1.5" stroke-miterlimit="10" stroke-linecap="round" stroke-linejoin="round"/>
  <path d="M12.0802 17.9263C12.2576 17.9263 12.4013 17.7826 12.4013 17.6053C12.4013 17.4279 12.2576 17.2842 12.0802 17.2842C11.9029 17.2842 11.7592 17.4279 11.7592 17.6053C11.7592 17.7826 11.9029 17.9263 12.0802 17.9263Z" fill="#A3A4A7" stroke="#A3A4A7" stroke-width="1.5" stroke-miterlimit="10"/>
</svg>
