<svg width="32" height="32" viewBox="0 0 32 32" fill="none" xmlns="http://www.w3.org/2000/svg">
<rect width="32" height="32" rx="16" fill="#F2F2F2"/>
<path d="M9 11L15 11" stroke="#828282" stroke-width="1.5" stroke-linecap="round" stroke-linejoin="round"/>
<path d="M23.6124 15.4697C23.9053 15.7626 23.9053 16.2374 23.6124 16.5303L18.8394 21.3033C18.5465 21.5962 18.0716 21.5962 17.7787 21.3033C17.4858 21.0104 17.4858 20.5355 17.7787 20.2426L22.0214 16L17.7787 11.7574C17.4858 11.4645 17.4858 10.9896 17.7787 10.6967C18.0716 10.4038 18.5465 10.4038 18.8394 10.6967L23.6124 15.4697ZM9 16.75C8.58579 16.75 8.25 16.4142 8.25 16C8.25 15.5858 8.58579 15.25 9 15.25V16.75ZM23.082 16.75H9V15.25H23.082V16.75Z" fill="#2F485C"/>
<path d="M9 21L15 21" stroke="#828282" stroke-width="1.5" stroke-linecap="round" stroke-linejoin="round"/>
</svg>
