<svg width="32" height="32" viewBox="0 0 32 32" fill="none" xmlns="http://www.w3.org/2000/svg">
<rect width="32" height="32" rx="16" fill="#F2F2F2"/>
<path d="M17 11L23 11" stroke="#828282" stroke-width="1.5" stroke-linecap="round" stroke-linejoin="round"/>
<path d="M8.46967 15.4697C8.17678 15.7626 8.17678 16.2374 8.46967 16.5303L13.2426 21.3033C13.5355 21.5962 14.0104 21.5962 14.3033 21.3033C14.5962 21.0104 14.5962 20.5355 14.3033 20.2426L10.0607 16L14.3033 11.7574C14.5962 11.4645 14.5962 10.9896 14.3033 10.6967C14.0104 10.4038 13.5355 10.4038 13.2426 10.6967L8.46967 15.4697ZM23.082 16.75C23.4962 16.75 23.832 16.4142 23.832 16C23.832 15.5858 23.4962 15.25 23.082 15.25V16.75ZM9 16.75H23.082V15.25H9V16.75Z" fill="#2F485C"/>
<path d="M17 21L23 21" stroke="#828282" stroke-width="1.5" stroke-linecap="round" stroke-linejoin="round"/>
</svg>
