<svg width="24" height="24" viewBox="0 0 24 24" fill="none" xmlns="http://www.w3.org/2000/svg">
<path d="M19.3844 20.709H4.61515C3.93287 20.709 3.41113 20.1471 3.41113 19.505V4.73575C3.41113 4.05348 3.97301 3.53174 4.61515 3.53174H19.3844C20.0667 3.53174 20.5884 4.09361 20.5884 4.73575V19.505C20.5884 20.1873 20.0667 20.709 19.3844 20.709Z" stroke-width="1.5" stroke-miterlimit="10" stroke-linecap="round" stroke-linejoin="round"/>
<path d="M9.51172 10.0737C9.51172 8.62887 10.6756 7.50513 12.0803 7.50513C13.485 7.50513 14.6488 8.66901 14.6488 10.0737C14.6488 11.4784 13.485 12.6423 12.0803 12.6423V14.9299" stroke-width="1.5" stroke-miterlimit="10" stroke-linecap="round" stroke-linejoin="round"/>
<path d="M12.0803 17.9263C12.2577 17.9263 12.4014 17.7826 12.4014 17.6053C12.4014 17.4279 12.2577 17.2842 12.0803 17.2842C11.903 17.2842 11.7593 17.4279 11.7593 17.6053C11.7593 17.7826 11.903 17.9263 12.0803 17.9263Z" fill="#828282" stroke-width="1.5" stroke-miterlimit="10"/>
</svg>
