<?xml version="1.0" encoding="UTF-8"?>
<svg width="700pt" height="700pt" version="1.1" viewBox="0 0 700 700" xmlns="http://www.w3.org/2000/svg" xmlns:xlink="http://www.w3.org/1999/xlink">
 <defs>
  <symbol id="v" overflow="visible">
   <path d="m1.8281-0.10938c-0.09375 0.054688-0.19531 0.089844-0.29688 0.10938-0.09375 0.019531-0.19922 0.03125-0.3125 0.03125-0.33594 0-0.60156-0.085938-0.79688-0.26562-0.1875-0.1875-0.28125-0.44141-0.28125-0.76562 0-0.3125 0.09375-0.5625 0.28125-0.75 0.19531-0.1875 0.46094-0.28125 0.79688-0.28125 0.11328 0 0.21875 0.015625 0.3125 0.046875 0.10156 0.023437 0.20312 0.058594 0.29688 0.10938v0.40625c-0.09375-0.0625-0.1875-0.10938-0.28125-0.14062s-0.19531-0.046875-0.29688-0.046875c-0.17969 0-0.32031 0.0625-0.42188 0.1875-0.10547 0.11719-0.15625 0.27344-0.15625 0.46875 0 0.21094 0.050781 0.375 0.15625 0.5 0.10156 0.11719 0.24219 0.17188 0.42188 0.17188 0.10156 0 0.20312-0.015625 0.29688-0.046875s0.1875-0.078125 0.28125-0.14062z"/>
  </symbol>
  <symbol id="f" overflow="visible">
   <path d="m1.3438-1.0938c-0.042969-0.019531-0.085938-0.03125-0.125-0.03125-0.042969-0.007812-0.085938-0.015625-0.125-0.015625-0.125 0-0.22656 0.042969-0.29688 0.125-0.0625 0.074219-0.09375 0.18359-0.09375 0.32812v0.6875h-0.46875v-1.5h0.46875v0.25c0.0625-0.09375 0.12891-0.16016 0.20312-0.20312 0.082031-0.050781 0.17969-0.078125 0.29688-0.078125h0.046875c0.019531 0 0.050781 0.007812 0.09375 0.015625z"/>
  </symbol>
  <symbol id="a" overflow="visible">
   <path d="m1.7188-0.75v0.14062h-1.1094c0.007813 0.10547 0.046875 0.1875 0.10938 0.25 0.070312 0.054687 0.17188 0.078125 0.29688 0.078125 0.10156 0 0.20703-0.015625 0.3125-0.046875 0.10156-0.03125 0.21094-0.070313 0.32812-0.125v0.35938c-0.11719 0.042969-0.23047 0.074219-0.34375 0.09375-0.11719 0.019531-0.23047 0.03125-0.34375 0.03125-0.27344 0-0.48047-0.066406-0.625-0.20312-0.14844-0.13281-0.21875-0.32812-0.21875-0.57812 0-0.23828 0.070312-0.42578 0.21875-0.5625 0.14453-0.14453 0.34766-0.21875 0.60938-0.21875 0.22656 0 0.41016 0.074219 0.54688 0.21875 0.14453 0.13672 0.21875 0.32422 0.21875 0.5625zm-0.48438-0.15625c0-0.09375-0.027344-0.16406-0.078125-0.21875-0.054688-0.0625-0.125-0.09375-0.21875-0.09375-0.085938 0-0.15625 0.027344-0.21875 0.078125-0.0625 0.054687-0.10156 0.13281-0.10938 0.23438z"/>
  </symbol>
  <symbol id="e" overflow="visible">
   <path d="m0.90625-0.67188c-0.10547 0-0.18359 0.015625-0.23438 0.046875-0.054687 0.03125-0.078125 0.085938-0.078125 0.15625 0 0.0625 0.019531 0.10938 0.0625 0.14062 0.039062 0.03125 0.097656 0.046875 0.17188 0.046875 0.09375 0 0.16406-0.03125 0.21875-0.09375 0.0625-0.0625 0.09375-0.14453 0.09375-0.25v-0.046875zm0.71875-0.1875v0.85938h-0.48438v-0.21875c-0.0625 0.09375-0.13672 0.16406-0.21875 0.20312-0.074219 0.03125-0.16797 0.046875-0.28125 0.046875-0.15625 0-0.28125-0.039062-0.375-0.125-0.09375-0.09375-0.14062-0.21094-0.14062-0.35938 0-0.17578 0.054688-0.30078 0.17188-0.375 0.125-0.082031 0.3125-0.125 0.5625-0.125h0.28125v-0.046875c0-0.070312-0.03125-0.125-0.09375-0.15625-0.054687-0.039062-0.14062-0.0625-0.26562-0.0625-0.10547 0-0.20312 0.011719-0.29688 0.03125-0.085937 0.023438-0.16406 0.054688-0.23438 0.09375v-0.35938c0.10156-0.03125 0.20703-0.050781 0.3125-0.0625 0.10156-0.007813 0.20312-0.015625 0.29688-0.015625 0.26953 0 0.46094 0.054688 0.57812 0.15625 0.125 0.10547 0.1875 0.27734 0.1875 0.51562z"/>
  </symbol>
  <symbol id="d" overflow="visible">
   <path d="m0.75-1.9219v0.42188h0.5v0.34375h-0.5v0.64062c0 0.0625 0.007812 0.10938 0.03125 0.14062 0.03125 0.023438 0.085938 0.03125 0.17188 0.03125h0.25v0.34375h-0.40625c-0.1875 0-0.32422-0.035156-0.40625-0.10938-0.074219-0.082031-0.10938-0.21875-0.10938-0.40625v-0.64062h-0.25v-0.34375h0.25v-0.42188z"/>
  </symbol>
  <symbol id="k" overflow="visible">
   <path d="m1.25-1.2812v-0.79688h0.48438v2.0781h-0.48438v-0.21875c-0.074219 0.09375-0.15234 0.16406-0.23438 0.20312-0.074219 0.03125-0.16406 0.046875-0.26562 0.046875-0.17969 0-0.32812-0.070312-0.45312-0.21875-0.11719-0.14453-0.17188-0.33203-0.17188-0.5625 0-0.22656 0.054688-0.41406 0.17188-0.5625 0.125-0.14453 0.27344-0.21875 0.45312-0.21875 0.10156 0 0.19141 0.023438 0.26562 0.0625 0.082031 0.042969 0.16016 0.10547 0.23438 0.1875zm-0.3125 0.96875c0.09375 0 0.16406-0.035156 0.21875-0.10938 0.0625-0.070313 0.09375-0.17969 0.09375-0.32812 0-0.13281-0.03125-0.23828-0.09375-0.3125-0.054688-0.082031-0.125-0.125-0.21875-0.125-0.10547 0-0.18359 0.042969-0.23438 0.125-0.054687 0.074219-0.078125 0.17969-0.078125 0.3125 0 0.14844 0.023438 0.25781 0.078125 0.32812 0.050781 0.074219 0.12891 0.10938 0.23438 0.10938z"/>
  </symbol>
  <symbol id="j" overflow="visible">
   <path d="m1.0312-0.3125c0.09375 0 0.16406-0.035156 0.21875-0.10938 0.0625-0.070313 0.09375-0.17969 0.09375-0.32812 0-0.13281-0.03125-0.23828-0.09375-0.3125-0.054688-0.082031-0.125-0.125-0.21875-0.125-0.10547 0-0.1875 0.042969-0.25 0.125-0.054688 0.074219-0.078125 0.17969-0.078125 0.3125 0 0.14844 0.023437 0.25781 0.078125 0.32812 0.0625 0.074219 0.14453 0.10938 0.25 0.10938zm-0.32812-0.96875c0.070313-0.082031 0.14453-0.14453 0.21875-0.1875 0.082031-0.039062 0.17578-0.0625 0.28125-0.0625 0.1875 0 0.33594 0.074219 0.45312 0.21875 0.11328 0.14844 0.17188 0.33594 0.17188 0.5625 0 0.23047-0.058594 0.41797-0.17188 0.5625-0.11719 0.14844-0.26562 0.21875-0.45312 0.21875-0.10547 0-0.19922-0.015625-0.28125-0.046875-0.074219-0.039062-0.14844-0.10938-0.21875-0.20312v0.21875h-0.46875v-2.0781h0.46875z"/>
  </symbol>
  <symbol id="i" overflow="visible">
   <path d="m0.03125-1.5h0.48438l0.39062 1.0156 0.34375-1.0156h0.48438l-0.625 1.6406c-0.0625 0.16406-0.14062 0.28125-0.23438 0.34375-0.085938 0.070313-0.19531 0.10938-0.32812 0.10938h-0.26562v-0.3125h0.14062c0.082031 0 0.14062-0.015625 0.17188-0.046875 0.039062-0.023437 0.070312-0.070313 0.09375-0.14062l0.015625-0.03125z"/>
  </symbol>
  <symbol id="c" overflow="visible">
   <path d="m1.3906-1.4531v0.375c-0.09375-0.050781-0.19531-0.085937-0.29688-0.10938-0.09375-0.019531-0.18359-0.03125-0.26562-0.03125-0.085937 0-0.15234 0.015625-0.20312 0.046875-0.042969 0.023437-0.0625 0.054687-0.0625 0.09375 0 0.042969 0.015625 0.074219 0.046875 0.09375 0.03125 0.023437 0.09375 0.039063 0.1875 0.046875l0.078125 0.015625c0.25 0.03125 0.41406 0.085937 0.5 0.15625 0.082031 0.0625 0.125 0.17188 0.125 0.32812s-0.0625 0.27734-0.1875 0.35938c-0.11719 0.074219-0.28906 0.10938-0.51562 0.10938-0.10547 0-0.21094-0.011719-0.3125-0.03125-0.10547-0.0078125-0.21094-0.03125-0.3125-0.0625v-0.35938c0.09375 0.054687 0.1875 0.089844 0.28125 0.10938 0.10156 0.023438 0.20703 0.03125 0.3125 0.03125 0.09375 0 0.16016-0.007812 0.20312-0.03125 0.050781-0.03125 0.078125-0.070312 0.078125-0.125 0-0.039062-0.015625-0.070312-0.046875-0.09375-0.03125-0.019531-0.10156-0.035156-0.20312-0.046875l-0.078125-0.015625c-0.21875-0.019531-0.37109-0.066406-0.45312-0.14062-0.085937-0.070313-0.125-0.17969-0.125-0.32812 0-0.15625 0.050781-0.26953 0.15625-0.34375 0.11328-0.082031 0.28125-0.125 0.5-0.125 0.09375 0 0.1875 0.011719 0.28125 0.03125 0.10156 0.011719 0.20703 0.027344 0.3125 0.046875z"/>
  </symbol>
  <symbol id="b" overflow="visible">
   <path d="m1.7344-0.90625v0.90625h-0.48438v-0.6875c0-0.13281-0.007812-0.22266-0.015625-0.26562 0-0.050781-0.007813-0.09375-0.015625-0.125-0.023438-0.03125-0.046875-0.050781-0.078125-0.0625-0.03125-0.019531-0.070313-0.03125-0.10938-0.03125-0.10547 0-0.1875 0.042969-0.25 0.125-0.054688 0.074219-0.078125 0.17969-0.078125 0.3125v0.73438h-0.46875v-2.0781h0.46875v0.79688c0.070313-0.082031 0.14844-0.14453 0.23438-0.1875 0.082031-0.039062 0.17188-0.0625 0.26562-0.0625 0.17578 0 0.30469 0.054688 0.39062 0.15625 0.09375 0.10547 0.14062 0.26172 0.14062 0.46875z"/>
  </symbol>
  <symbol id="h" overflow="visible">
   <path d="m1.7344-0.90625v0.90625h-0.48438v-0.70312c0-0.125-0.007812-0.20703-0.015625-0.25 0-0.050781-0.007813-0.09375-0.015625-0.125-0.023438-0.03125-0.046875-0.050781-0.078125-0.0625-0.03125-0.019531-0.070313-0.03125-0.10938-0.03125-0.10547 0-0.1875 0.042969-0.25 0.125-0.054688 0.074219-0.078125 0.17969-0.078125 0.3125v0.73438h-0.46875v-1.5h0.46875v0.21875c0.070313-0.082031 0.14844-0.14453 0.23438-0.1875 0.082031-0.039062 0.17188-0.0625 0.26562-0.0625 0.17578 0 0.30469 0.054688 0.39062 0.15625 0.09375 0.10547 0.14062 0.26172 0.14062 0.46875z"/>
  </symbol>
  <symbol id="u" overflow="visible">
   <path d="m0.23438-2.0781h0.46875v1.125l0.54688-0.54688h0.5625l-0.73438 0.6875 0.79688 0.8125h-0.57812l-0.59375-0.625v0.625h-0.46875z"/>
  </symbol>
  <symbol id="t" overflow="visible">
   <path d="m0.23438-1.5h0.46875v1.5h-0.46875zm0-0.57812h0.46875v0.39062h-0.46875z"/>
  </symbol>
  <symbol id="s" overflow="visible">
   <path d="m1.25-0.25c-0.074219 0.085938-0.15234 0.14844-0.23438 0.1875-0.074219 0.042969-0.16406 0.0625-0.26562 0.0625-0.17969 0-0.32812-0.070312-0.45312-0.21875-0.11719-0.14453-0.17188-0.32812-0.17188-0.54688s0.054688-0.39844 0.17188-0.54688c0.125-0.14453 0.27344-0.21875 0.45312-0.21875 0.10156 0 0.19141 0.023438 0.26562 0.0625 0.082031 0.042969 0.16016 0.10547 0.23438 0.1875v-0.21875h0.48438v1.3438c0 0.23828-0.078125 0.42188-0.23438 0.54688-0.15625 0.13281-0.375 0.20312-0.65625 0.20312-0.09375 0-0.1875-0.011719-0.28125-0.03125-0.085938-0.011719-0.16797-0.03125-0.25-0.0625v-0.375c0.082031 0.050781 0.16016 0.085938 0.23438 0.10938 0.082031 0.03125 0.16406 0.046875 0.25 0.046875 0.15625 0 0.26953-0.039062 0.34375-0.10938 0.070313-0.074219 0.10938-0.17969 0.10938-0.32812zm-0.3125-0.9375c-0.10547 0-0.18359 0.039062-0.23438 0.10938-0.054687 0.074219-0.078125 0.17969-0.078125 0.3125 0 0.13672 0.023438 0.24219 0.078125 0.3125 0.050781 0.074219 0.12891 0.10938 0.23438 0.10938 0.09375 0 0.16406-0.035156 0.21875-0.10938 0.0625-0.070313 0.09375-0.17578 0.09375-0.3125 0-0.13281-0.03125-0.23828-0.09375-0.3125-0.054688-0.070313-0.125-0.10938-0.21875-0.10938z"/>
  </symbol>
  <symbol id="r" overflow="visible">
   <path d="m1.2188-2.0781v0.3125h-0.26562c-0.074219 0-0.125 0.015625-0.15625 0.046875-0.023437 0.023438-0.03125 0.0625-0.03125 0.125v0.09375h0.40625v0.34375h-0.40625v1.1562h-0.46875v-1.1562h-0.25v-0.34375h0.25v-0.09375c0-0.16406 0.039063-0.28516 0.125-0.35938 0.09375-0.082031 0.23438-0.125 0.42188-0.125z"/>
  </symbol>
  <symbol id="g" overflow="visible">
   <path d="m0.9375-1.1875c-0.10547 0-0.1875 0.039062-0.25 0.10938-0.054688 0.074219-0.078125 0.18359-0.078125 0.32812 0 0.14844 0.023437 0.26172 0.078125 0.34375 0.0625 0.074219 0.14453 0.10938 0.25 0.10938 0.10156 0 0.17969-0.035156 0.23438-0.10938 0.0625-0.082031 0.09375-0.19531 0.09375-0.34375 0-0.14453-0.03125-0.25391-0.09375-0.32812-0.054687-0.070313-0.13281-0.10938-0.23438-0.10938zm0-0.34375c0.25781 0 0.46094 0.074219 0.60938 0.21875 0.14453 0.13672 0.21875 0.32422 0.21875 0.5625 0 0.25-0.074219 0.44531-0.21875 0.57812-0.14844 0.13672-0.35156 0.20312-0.60938 0.20312-0.26172 0-0.46484-0.066406-0.60938-0.20312-0.13672-0.13281-0.20312-0.32812-0.20312-0.57812 0-0.23828 0.066406-0.42578 0.20312-0.5625 0.14453-0.14453 0.34766-0.21875 0.60938-0.21875z"/>
  </symbol>
  <symbol id="q" overflow="visible">
   <path d="m1.6094-1.25c0.0625-0.09375 0.13281-0.16016 0.21875-0.20312 0.082031-0.050781 0.17578-0.078125 0.28125-0.078125 0.16406 0 0.29688 0.054688 0.39062 0.15625 0.09375 0.10547 0.14062 0.26172 0.14062 0.46875v0.90625h-0.48438v-0.78125-0.03125-0.0625c0-0.10156-0.015625-0.17578-0.046875-0.21875-0.03125-0.050781-0.085937-0.078125-0.15625-0.078125-0.085937 0-0.15234 0.039063-0.20312 0.10938-0.054688 0.074219-0.078125 0.18359-0.078125 0.32812v0.73438h-0.48438v-0.78125c0-0.16406-0.015625-0.26953-0.046875-0.3125-0.023437-0.050781-0.070313-0.078125-0.14062-0.078125-0.09375 0-0.16797 0.042969-0.21875 0.125-0.054688 0.074219-0.078125 0.17969-0.078125 0.3125v0.73438h-0.46875v-1.5h0.46875v0.21875c0.0625-0.082031 0.12891-0.14453 0.20312-0.1875 0.082031-0.039062 0.16406-0.0625 0.25-0.0625 0.10156 0 0.19141 0.027344 0.26562 0.078125 0.082031 0.054687 0.14453 0.12109 0.1875 0.20312z"/>
  </symbol>
  <symbol id="p" overflow="visible">
   <path d="m0.25-2h0.57812l0.71875 1.375v-1.375h0.48438v2h-0.5625l-0.73438-1.375v1.375h-0.48438z"/>
  </symbol>
  <symbol id="o" overflow="visible">
   <path d="m0.21875-0.57812v-0.92188h0.46875v0.15625 0.3125 0.23438 0.26562c0.007812 0.054688 0.023438 0.089844 0.046875 0.10938 0.019531 0.03125 0.046875 0.058594 0.078125 0.078125 0.03125 0.011719 0.066406 0.015625 0.10938 0.015625 0.09375 0 0.16406-0.035156 0.21875-0.10938 0.0625-0.070312 0.09375-0.17578 0.09375-0.3125v-0.75h0.48438v1.5h-0.48438v-0.21875c-0.074219 0.09375-0.15234 0.16406-0.23438 0.20312-0.074219 0.03125-0.15625 0.046875-0.25 0.046875-0.17969 0-0.3125-0.050781-0.40625-0.15625-0.085938-0.10156-0.125-0.25391-0.125-0.45312z"/>
  </symbol>
  <symbol id="n" overflow="visible">
   <path d="m0.25-2h0.85938c0.25 0 0.44141 0.058594 0.57812 0.17188 0.13281 0.11719 0.20312 0.27734 0.20312 0.48438 0 0.21094-0.070313 0.37109-0.20312 0.48438-0.13672 0.11719-0.32812 0.17188-0.57812 0.17188h-0.34375v0.6875h-0.51562zm0.51562 0.375v0.5625h0.28125c0.10156 0 0.17969-0.019531 0.23438-0.0625 0.050781-0.050781 0.078125-0.125 0.078125-0.21875s-0.027344-0.16016-0.078125-0.20312c-0.054688-0.050781-0.13281-0.078125-0.23438-0.078125z"/>
  </symbol>
  <symbol id="m" overflow="visible">
   <path d="m0.23438-1.5h0.46875v1.4688c0 0.20703-0.046875 0.36328-0.14062 0.46875-0.09375 0.10156-0.23438 0.15625-0.42188 0.15625h-0.23438v-0.3125h0.078125c0.09375 0 0.15625-0.023438 0.1875-0.0625 0.039063-0.042969 0.0625-0.125 0.0625-0.25zm0-0.57812h0.46875v0.39062h-0.46875z"/>
  </symbol>
  <symbol id="l" overflow="visible">
   <path d="m1.4375-1.4531v0.39062c-0.0625-0.039062-0.13281-0.070312-0.20312-0.09375-0.0625-0.019531-0.13281-0.03125-0.20312-0.03125-0.125 0-0.23047 0.042969-0.3125 0.125-0.074219 0.074219-0.10938 0.17969-0.10938 0.3125 0 0.14844 0.035156 0.26172 0.10938 0.34375 0.082031 0.074219 0.1875 0.10938 0.3125 0.10938 0.082031 0 0.15625-0.007813 0.21875-0.03125 0.070312-0.03125 0.13281-0.066406 0.1875-0.10938v0.39062c-0.074219 0.03125-0.15234 0.050781-0.23438 0.0625-0.074219 0.0078125-0.14844 0.015625-0.21875 0.015625-0.27344 0-0.48438-0.066406-0.64062-0.20312-0.14844-0.13281-0.21875-0.32812-0.21875-0.57812 0-0.23828 0.070312-0.42578 0.21875-0.5625 0.15625-0.14453 0.36719-0.21875 0.64062-0.21875 0.070313 0 0.14453 0.011719 0.21875 0.03125 0.082031 0.011719 0.16016 0.027344 0.23438 0.046875z"/>
  </symbol>
 </defs>
 <g>
  <path d="m261.57 240.9c-2.7891 0-5.5781-0.21875-8.3125-0.54688 1.4766 0.21875 2.8984 0.38281 4.375 0.60156-5.1406-0.76562-10.117-2.0781-14.875-4.0469l3.9375 1.6406c-3.5547-1.5312-6.9453-3.3359-10.172-5.4688-0.82031-0.54688-1.5859-1.0938-2.3516-1.6406-2.2422-1.5859 3.5547 2.8984 0.49219 0.38281-1.4766-1.2031-2.8984-2.5156-4.2656-3.8828-1.3672-1.3672-2.625-2.7891-3.8828-4.2656-2.5703-3.1172 1.9141 2.7344 0.38281 0.49219-0.54688-0.76562-1.0938-1.5859-1.6406-2.3516-2.1328-3.2266-3.9375-6.6172-5.4688-10.172 0.54688 1.3125 1.0938 2.625 1.6406 3.9375-1.9688-4.8125-3.3359-9.7891-4.0469-14.875 0.21875 1.4766 0.38281 2.8984 0.60156 4.375-0.98438-7.2188-0.54688-14.656-0.54688-21.93 0-7.2734-0.38281-14.711 0.54688-21.93-0.21875 1.4766-0.38281 2.8984-0.60156 4.375 0.76563-5.1406 2.0781-10.117 4.0469-14.875-0.54688 1.3125-1.0938 2.625-1.6406 3.9375 1.5312-3.5547 3.3359-6.9453 5.4688-10.172 0.54688-0.82031 1.0938-1.5859 1.6406-2.3516 1.5859-2.2422-2.8984 3.5547-0.38281 0.49219 1.2031-1.4766 2.5156-2.8984 3.8828-4.2656 1.3672-1.3672 2.7891-2.625 4.2656-3.8828 3.1172-2.5703-2.7344 1.9141-0.49219 0.38281 0.76562-0.54688 1.5859-1.0938 2.3516-1.6406 3.2266-2.1328 6.6172-3.9375 10.172-5.4688l-3.9375 1.6406c4.8125-1.9688 9.7891-3.3359 14.875-4.0469-1.4766 0.21875-2.8984 0.38281-4.375 0.60156 5.5234-0.71094 11.102-0.71094 16.625 0-1.4766-0.21875-2.8984-0.38281-4.375-0.60156 5.1406 0.76562 10.117 2.0781 14.875 4.0469l-3.9375-1.6406c3.5547 1.5312 6.9453 3.3359 10.172 5.4688 0.82031 0.54688 1.5859 1.0938 2.3516 1.6406 2.2422 1.5859-3.5547-2.8984-0.49219-0.38281 1.4766 1.2031 2.8984 2.5156 4.2656 3.8828 1.3672 1.3672 2.625 2.7891 3.8828 4.2656 2.5703 3.1172-1.9141-2.7344-0.38281-0.49219 0.54687 0.76563 1.0938 1.5859 1.6406 2.3516 2.1328 3.2266 3.9375 6.6172 5.4688 10.172-0.54687-1.3125-1.0938-2.625-1.6406-3.9375 1.9688 4.8125 3.3359 9.7891 4.0469 14.875-0.21875-1.4766-0.38281-2.8984-0.60156-4.375 0.98438 7.2188 0.54688 14.656 0.54688 21.93 0 7.2734 0.38281 14.711-0.54688 21.93 0.21875-1.4766 0.38281-2.8984 0.60156-4.375-0.76562 5.1406-2.0781 10.117-4.0469 14.875 0.54687-1.3125 1.0938-2.625 1.6406-3.9375-1.5312 3.5547-3.3359 6.9453-5.4688 10.172-0.54687 0.82031-1.0938 1.5859-1.6406 2.3516-1.5859 2.2422 2.8984-3.5547 0.38281-0.49219-1.2031 1.4766-2.5156 2.8984-3.8828 4.2656-1.3672 1.3672-2.7891 2.625-4.2656 3.8828-3.1172 2.5703 2.7344-1.9141 0.49219-0.38281-0.76562 0.54688-1.5859 1.0938-2.3516 1.6406-3.2266 2.1328-6.6172 3.9375-10.172 5.4688l3.9375-1.6406c-4.8125 1.9688-9.7891 3.3359-14.875 4.0469 1.4766-0.21875 2.8984-0.38281 4.375-0.60156-2.7344 0.38281-5.5234 0.54688-8.3125 0.54688-8.5859 0.054687-16.789 7.4922-16.406 16.406 0.38281 8.8594 7.2188 16.461 16.406 16.406 20.289-0.10938 40.086-8.2578 54.414-22.641 14.383-14.383 22.531-34.125 22.641-54.414 0.054688-8.8594 0-17.719 0-26.578-0.054688-19.141-6.8906-36.914-19.195-51.406-13.125-15.477-32.484-24.336-52.5-26.086-20.18-1.8047-39.812 5.6328-55.234 18.32-15.75 12.906-24.664 32.102-26.797 52.062-1.0938 10.117-0.32813 20.562-0.32813 30.68 0 16.242 3.7188 32.43 13.125 45.883 11.375 16.297 28.492 28.82 48.289 32.539 5.1406 0.98438 10.391 1.6406 15.641 1.6406 8.5859 0 16.789-7.5469 16.406-16.406-0.4375-8.8594-7.2188-16.406-16.461-16.406z"/>
  <path d="m370.23 372.37v68.961 9.8438l16.406-16.406h-24.938-59.938-72.516-62.672c-10.117 0-20.344-0.27344-30.461 0h-0.4375l16.406 16.406v-71.75c0-4.8672-0.10938-9.7344 0.49219-14.602-0.21875 1.4766-0.38281 2.8984-0.60156 4.375 0.71094-4.8672 2.0234-9.625 3.9375-14.164-0.54687 1.3125-1.0938 2.625-1.6406 3.9375 1.4219-3.3359 3.1719-6.5078 5.1953-9.5156 0.54688-0.82031 1.1484-1.5312 1.6953-2.3516-3.1172 4.5938-1.2031 1.5312-0.32812 0.49219 1.0938-1.2578 2.2422-2.5156 3.4453-3.7188s2.4609-2.2969 3.7734-3.3906c3.1172-2.5703-2.6797 1.9141-0.49219 0.32812 0.76562-0.54688 1.5859-1.1484 2.4062-1.6406 3.0625-2.0234 6.2891-3.7188 9.625-5.1953-1.3125 0.54688-2.625 1.0938-3.9375 1.6406 5.0312-2.1328 10.281-3.5547 15.695-4.2656-1.4766 0.21875-2.8984 0.38281-4.375 0.60156 6.2344-0.76562 12.688-0.49219 18.977-0.49219h32.539 75.469c7.4375 0 15.094-0.4375 22.477 0.4375-1.4766-0.21875-2.8984-0.38281-4.375-0.60156 5.3047 0.71094 10.445 2.1328 15.422 4.2109-1.3125-0.54687-2.625-1.0938-3.9375-1.6406 3.3359 1.4766 6.5078 3.1719 9.5703 5.1953 0.82031 0.54688 1.75 1.0938 2.4609 1.75-0.65625-0.49219-1.3125-0.98438-1.9688-1.4766 0.4375 0.32812 0.875 0.71094 1.3125 1.0938 1.2578 1.0938 2.4609 2.1875 3.6094 3.3359s2.2422 2.4062 3.3359 3.6641c0.92969 1.1484 1.6953 3.1172-0.54688-0.71094 0.4375 0.71094 0.98438 1.3672 1.4219 2.0234 2.0234 3.0078 3.7188 6.1797 5.1406 9.4609-0.54687-1.3125-1.0938-2.625-1.6406-3.9375 1.9688 4.7031 3.3359 9.625 4.0469 14.656-0.21875-1.4766-0.38281-2.8984-0.60156-4.375 0.32812 2.5703 0.54688 5.1953 0.54688 7.8203 0.054687 8.5859 7.4922 16.789 16.406 16.406 8.8594-0.38281 16.461-7.2188 16.406-16.406-0.21875-27.508-16.078-54.414-41.344-66.172-10.445-4.8672-21.383-7.6016-32.977-7.6016h-6.7266-75.141-37.57c-6.0703 0-12.141-0.27344-18.211 0.10938-24.773 1.4219-47.414 14.438-60.812 35.383-6.6719 10.445-10.227 22.586-10.992 34.891-0.16406 3.0625-0.10938 6.1797-0.10938 9.2422v71.148 1.8594c0 8.8594 7.4922 16.406 16.406 16.406h24.938 59.938 72.516 62.672c10.172 0 20.289 0.21875 30.461 0h0.4375c8.8594 0 16.406-7.4922 16.406-16.406v-68.961-9.8438c0-8.5859-7.5469-16.789-16.406-16.406-8.8047 0.32812-16.297 7.1641-16.297 16.352z"/>
  <path d="m447.89 254.62c-2.5156 0-5.0312-0.16406-7.5469-0.49219 1.4766 0.21875 2.8984 0.38281 4.375 0.60156-4.8672-0.71094-9.625-1.9688-14.164-3.8828 1.3125 0.54688 2.625 1.0938 3.9375 1.6406-3.3359-1.4219-6.5078-3.1172-9.5156-5.1406-0.32812-0.21875-2.2969-1.2578-2.3516-1.6406 0.054688 0.4375 3.6641 2.9531 1.0391 0.76562-1.3672-1.1484-2.6797-2.3516-3.9922-3.6094-1.2578-1.2578-2.4609-2.5703-3.6094-3.9922-0.875-1.0391-2.0234-3.1719 0.76562 1.0391-0.54688-0.82031-1.1484-1.5312-1.6406-2.3516-2.0234-3.0078-3.7188-6.1797-5.1406-9.5156l1.6406 3.9375c-1.8594-4.5391-3.1719-9.2969-3.8828-14.164 0.21875 1.4766 0.38281 2.8984 0.60156 4.375-0.875-6.6719-0.49219-13.508-0.49219-20.234 0-6.7266-0.32812-13.562 0.49219-20.234-0.21875 1.4766-0.38281 2.8984-0.60156 4.375 0.71094-4.8672 1.9688-9.625 3.8828-14.164l-1.6406 3.9375c1.4219-3.3359 3.1172-6.5078 5.1406-9.5156 0.21875-0.32812 1.2578-2.2969 1.6406-2.3516-0.4375 0.054688-2.9531 3.6641-0.76562 1.0391 1.1484-1.3672 2.3516-2.6797 3.6094-3.9922 1.2578-1.2578 2.5703-2.4609 3.9922-3.6094 1.0391-0.875 3.1719-2.0234-1.0391 0.76563 0.82031-0.54688 1.5312-1.1484 2.3516-1.6406 3.0078-2.0234 6.1797-3.7188 9.5156-5.1406-1.3125 0.54687-2.625 1.0938-3.9375 1.6406 4.5391-1.8594 9.2969-3.1719 14.164-3.8828-1.4766 0.21875-2.8984 0.38281-4.375 0.60156 5.0312-0.65625 10.062-0.65625 15.094 0-1.4766-0.21875-2.8984-0.38281-4.375-0.60156 4.8672 0.71094 9.625 1.9688 14.164 3.8828-1.3125-0.54687-2.625-1.0938-3.9375-1.6406 3.3359 1.4219 6.5078 3.1172 9.5156 5.1406 0.32812 0.21875 2.2969 1.2578 2.3516 1.6406-0.054688-0.4375-3.6641-2.9531-1.0391-0.76563 1.3672 1.1484 2.6797 2.3516 3.9922 3.6094 1.2578 1.2578 2.4609 2.5703 3.6094 3.9922 0.875 1.0391 2.0234 3.1719-0.76562-1.0391 0.54688 0.82031 1.1484 1.5312 1.6406 2.3516 2.0234 3.0078 3.7188 6.1797 5.1406 9.5156l-1.6406-3.9375c1.8594 4.5391 3.1719 9.2969 3.8828 14.164-0.21875-1.4766-0.38281-2.8984-0.60156-4.375 0.875 6.6719 0.49219 13.508 0.49219 20.234 0 6.7266 0.32812 13.562-0.49219 20.234 0.21875-1.4766 0.38281-2.8984 0.60156-4.375-0.71094 4.8672-1.9688 9.625-3.8828 14.164l1.6406-3.9375c-1.4219 3.3359-3.1172 6.5078-5.1406 9.5156-0.21875 0.32812-1.2578 2.2969-1.6406 2.3516 0.4375-0.054687 2.9531-3.6641 0.76562-1.0391-1.1484 1.3672-2.3516 2.6797-3.6094 3.9922-1.2578 1.2578-2.5703 2.4609-3.9922 3.6094-1.0391 0.875-3.1719 2.0234 1.0391-0.76562-0.82031 0.54687-1.5312 1.1484-2.3516 1.6406-3.0078 2.0234-6.1797 3.7188-9.5156 5.1406 1.3125-0.54688 2.625-1.0938 3.9375-1.6406-4.5391 1.8594-9.2969 3.1719-14.164 3.8828 1.4766-0.21875 2.8984-0.38281 4.375-0.60156-2.5156 0.27344-5.0312 0.4375-7.5469 0.49219-8.5859 0.054688-16.789 7.4922-16.406 16.406 0.38281 8.8594 7.2188 16.461 16.406 16.406 19.195-0.10938 37.844-7.7656 51.406-21.383 13.562-13.562 21.273-32.266 21.383-51.406 0.054687-8.2578 0-16.461 0-24.719-0.054688-18.102-6.5625-34.891-18.211-48.617-12.359-14.547-30.461-22.75-49.273-24.555-19.141-1.8047-37.844 5.3047-52.5 17.281-14.93 12.195-23.242 30.352-25.266 49.164-1.0391 9.4062-0.32813 19.141-0.32813 28.602 0 15.367 3.5547 30.789 12.578 43.531 10.773 15.258 26.742 26.961 45.336 30.516 4.8672 0.92969 9.8984 1.5859 14.875 1.5859 8.5859 0 16.789-7.5469 16.406-16.406-0.4375-8.9141-7.2188-16.406-16.406-16.406z"/>
  <path d="m547.42 377.95v64.258 8.9688l16.406-16.406h-60.047-95.156-21.984l16.406 16.406v-39.648c0-13.453 0.27344-26.961 0-40.469-0.49219-20.672-9.625-41.18-25.539-54.578-2.4062 9.1328-4.8125 18.266-7.2188 27.398 4.1016-1.5312 8.2578-2.625 12.578-3.2812-1.4766 0.21875-2.8984 0.38281-4.375 0.60156 6.0156-0.76562 12.195-0.49219 18.211-0.49219h30.68 69.672c6.7266 0 13.617-0.38281 20.289 0.4375-1.4766-0.21875-2.8984-0.38281-4.375-0.60156 4.6484 0.60156 9.1328 1.8047 13.453 3.6094-1.3125-0.54688-2.625-1.0938-3.9375-1.6406 3.1172 1.3125 6.0703 2.8438 8.9141 4.7031 0.82031 0.54687 1.5859 1.0938 2.3516 1.6406 2.1875 1.5312-3.2266-2.6797-1.0938-0.82031 1.2578 1.0938 2.5156 2.1875 3.7188 3.3359 1.2031 1.1484 2.2969 2.4062 3.3906 3.6641 0.875 1.0391 2.0234 3.1719-0.82031-1.0938 0.54688 0.82031 1.1484 1.5312 1.6406 2.3516 1.8594 2.7891 3.4453 5.7969 4.7578 8.8594l-1.6406-3.9375c1.8047 4.3203 3.0078 8.8047 3.7188 13.453-0.21875-1.4766-0.38281-2.8984-0.60156-4.375 0.38281 2.625 0.60156 5.1406 0.60156 7.6562 0.054687 8.5859 7.4922 16.789 16.406 16.406 8.8594-0.38281 16.461-7.2188 16.406-16.406-0.10938-14-4.2109-28.492-12.469-39.922-8.8594-12.25-20.344-21.109-34.562-26.305-11.539-4.2109-23.734-3.8281-35.766-3.8281h-92.641c-14.602 0-29.258-0.82031-43.258 4.375-5.5234 2.0234-9.8438 5.5781-11.484 11.484-1.4219 5.25-0.16406 12.305 4.2109 15.969 1.6953 1.4219 3.2812 2.8984 4.8125 4.4844 0.76562 0.82031 1.4766 1.5859 2.1875 2.4609 2.7891 3.2266-1.6406-2.4062 0-0.10937 2.5703 3.6641 4.8125 7.4375 6.5625 11.539l-1.6406-3.9375c1.9688 4.7578 3.3359 9.625 4.0469 14.711-0.21875-1.4766-0.38281-2.8984-0.60156-4.375 1.3125 10.336 0.54688 21.219 0.54688 31.609v44.461 10.609c0 8.8594 7.4922 16.406 16.406 16.406h60.047 95.156 21.984c8.8594 0 16.406-7.4922 16.406-16.406v-64.258-8.9688c0-8.5859-7.5469-16.789-16.406-16.406-8.8594 0.38281-16.352 7.2188-16.352 16.406z"/>
  <use x="70" y="568.203125" xlink:href="#v"/>
  <use x="72.007812" y="568.203125" xlink:href="#f"/>
  <use x="73.355469" y="568.203125" xlink:href="#a"/>
  <use x="75.210937" y="568.203125" xlink:href="#e"/>
  <use x="77.054688" y="568.203125" xlink:href="#d"/>
  <use x="78.363281" y="568.203125" xlink:href="#a"/>
  <use x="80.214844" y="568.203125" xlink:href="#k"/>
  <use x="83.125" y="568.203125" xlink:href="#j"/>
  <use x="85.082031" y="568.203125" xlink:href="#i"/>
  <use x="87.816406" y="568.203125" xlink:href="#c"/>
  <use x="89.445312" y="568.203125" xlink:href="#b"/>
  <use x="91.390625" y="568.203125" xlink:href="#e"/>
  <use x="93.238281" y="568.203125" xlink:href="#c"/>
  <use x="94.863281" y="568.203125" xlink:href="#b"/>
  <use x="96.8125" y="568.203125" xlink:href="#e"/>
  <use x="98.65625" y="568.203125" xlink:href="#h"/>
  <use x="100.601562" y="568.203125" xlink:href="#u"/>
  <use x="103.375" y="568.203125" xlink:href="#c"/>
  <use x="105" y="568.203125" xlink:href="#t"/>
  <use x="105.9375" y="568.203125" xlink:href="#h"/>
  <use x="107.882812" y="568.203125" xlink:href="#s"/>
  <use x="109.84375" y="568.203125" xlink:href="#b"/>
  <use x="70" y="570.9375" xlink:href="#r"/>
  <use x="71.191406" y="570.9375" xlink:href="#f"/>
  <use x="72.539062" y="570.9375" xlink:href="#g"/>
  <use x="74.417969" y="570.9375" xlink:href="#q"/>
  <use x="78.21875" y="570.9375" xlink:href="#d"/>
  <use x="79.523438" y="570.9375" xlink:href="#b"/>
  <use x="81.472656" y="570.9375" xlink:href="#a"/>
  <use x="84.277344" y="570.9375" xlink:href="#p"/>
  <use x="86.566406" y="570.9375" xlink:href="#g"/>
  <use x="88.445312" y="570.9375" xlink:href="#o"/>
  <use x="90.390625" y="570.9375" xlink:href="#h"/>
  <use x="93.289062" y="570.9375" xlink:href="#n"/>
  <use x="95.292969" y="570.9375" xlink:href="#f"/>
  <use x="96.644531" y="570.9375" xlink:href="#g"/>
  <use x="98.519531" y="570.9375" xlink:href="#m"/>
  <use x="99.457031" y="570.9375" xlink:href="#a"/>
  <use x="101.3125" y="570.9375" xlink:href="#l"/>
  <use x="102.933594" y="570.9375" xlink:href="#d"/>
 </g>
</svg>
