<?xml version="1.0" encoding="UTF-8"?>
<svg width="700pt" height="700pt" version="1.1" viewBox="0 0 700 700" xmlns="http://www.w3.org/2000/svg">
 <path d="m90.125 289.27c-1.7383-2.7812-2.6602-5.9922-2.6602-9.2734s0.92188-6.4922 2.6602-9.2734c4.7266-8.2266 116.02-183.23 258.65-183.23 27.348 0.3125 54.34 6.2695 79.277 17.5 5.75 2.5 9.7305 7.8789 10.441 14.113 0.71094 6.2305-1.957 12.367-7 16.098-5.0391 3.7305-11.691 4.4883-17.441 1.9883-20.496-9.4023-42.73-14.41-65.277-14.699-106.05 0-198.45 122.5-222.77 157.5 18.363 26.559 39.098 51.391 61.949 74.199 3.3125 3.2852 5.1758 7.7578 5.1758 12.426s-1.8633 9.1406-5.1758 12.426c-3.2852 3.3125-7.7578 5.1758-12.426 5.1758-4.6641 0-9.1367-1.8633-12.422-5.1758-27.336-27.348-51.793-57.43-72.977-89.777zm517.12-18.547c1.7383 2.7812 2.6602 5.9922 2.6602 9.2734s-0.92188 6.4922-2.6602 9.2734c-4.7266 8.2266-115.85 183.23-258.48 183.23-44.648-1.457-87.848-16.203-124.07-42.352l-107.27 107.28c-3.2852 3.3125-7.7578 5.1758-12.426 5.1758s-9.1406-1.8633-12.426-5.1758c-3.3125-3.2852-5.1758-7.7578-5.1758-12.426s1.8633-9.1406 5.1758-12.426l117.43-117.6 372.4-372.4v-0.003906c4.4414-4.4375 10.91-6.1719 16.973-4.5469 6.0664 1.625 10.801 6.3594 12.426 12.426 1.625 6.0625-0.10938 12.531-4.5469 16.973l-105 105c40.52 34.164 75.887 74.012 105 118.3zm-198.62-24.676-95.199 95.199c10.391 5.75 22.074 8.7617 33.949 8.75 18.566 0 36.371-7.375 49.496-20.504 13.129-13.125 20.504-30.93 20.504-49.496 0.011719-11.875-3-23.559-8.75-33.949zm162.75 33.949c-26.473-38.379-57.961-73.047-93.625-103.07l-43.926 43.926c18.082 27.137 22.527 61.137 12.031 92.012-10.496 30.875-34.742 55.121-65.617 65.617-30.875 10.496-64.875 6.0508-92.012-12.031l-38.324 38.5h-0.003906c29.203 20.012 63.496 31.301 98.875 32.551 106.23 0 198.45-122.5 222.6-157.5zm-224-105c-27.848 0-54.555 11.062-74.246 30.754s-30.754 46.398-30.754 74.246c-0.26562 2.0898-0.26562 4.207 0 6.3008 0.95703 3.8828 3.2188 7.3203 6.4023 9.7383 3.1836 2.4219 7.1016 3.6758 11.098 3.5625 1.3945 0.16797 2.8047 0.16797 4.1992 0 4.2695-1.0078 8.0078-3.5781 10.473-7.2109 2.4609-3.6289 3.4727-8.0508 2.8281-12.391 0-18.566 7.375-36.371 20.504-49.496 13.125-13.129 30.93-20.504 49.496-20.504 6.2539 1.1875 12.664-1.0508 16.816-5.8711 4.1562-4.8203 5.4258-11.492 3.3281-17.5-2.0977-6.0078-7.2422-10.441-13.496-11.629-2.207-0.29688-4.4414-0.29688-6.6484 0z"/>
</svg>
