<?xml version="1.0" encoding="UTF-8"?>
<svg width="700pt" height="700pt" version="1.1" viewBox="0 0 700 700" xmlns="http://www.w3.org/2000/svg">
 <path d="m403.67 25.668c-109.67 0-198.34 91-198.34 198.33 0 46.668 16.332 88.668 42 123.67l-151.67 151.67 32.668 32.668 151.67-149.34c32.668 25.668 77 42 123.67 42 109.67 0 198.33-88.668 198.33-198.33 0-109.67-91-200.67-198.33-200.67zm0 350c-84 0-151.67-67.668-151.67-151.67s67.668-151.67 151.67-151.67 151.67 67.668 151.67 151.67c-0.003907 84-70.004 151.67-151.67 151.67z"/>
</svg>
