<?xml version="1.0" encoding="UTF-8"?>
<svg width="700pt" height="700pt" version="1.1" viewBox="0 0 700 700" xmlns="http://www.w3.org/2000/svg">
 <g>
  <path d="m513.33 116.67h-46.668v46.668h46.668c12.879 0 23.332 10.453 23.332 23.332v186.67c0 12.879-10.453 23.332-23.332 23.332h-116.67v-37.754l-122.17 61.086 122.18 61.086v-37.754h116.67c38.594 0 70-31.406 70-70l-0.003907-186.66c0-38.594-31.406-70-70-70z"/>
  <path d="m163.33 373.33v-186.66c0-12.879 10.453-23.332 23.332-23.332h116.67v37.754l122.18-61.09-122.18-61.086v37.754h-116.66c-38.594 0-70 31.406-70 70v186.67c0 38.594 31.406 70 70 70h46.668v-46.668h-46.668c-12.883 0-23.336-10.453-23.336-23.336z"/>
 </g>
</svg>
