<?xml version="1.0" encoding="UTF-8"?>
<svg width="700pt" height="700pt" version="1.1" viewBox="0 0 700 700" xmlns="http://www.w3.org/2000/svg" xmlns:xlink="http://www.w3.org/1999/xlink">
 <defs>
  <symbol id="h" overflow="visible">
   <path d="m39.078-2.3281c-2.0117 1.043-4.1094 1.8281-6.2969 2.3594s-4.4648 0.79688-6.8281 0.79688c-7.0859 0-12.699-1.9766-16.844-5.9375-4.1367-3.957-6.2031-9.3281-6.2031-16.109 0-6.7891 2.0664-12.164 6.2031-16.125 4.1445-3.9688 9.7578-5.9531 16.844-5.9531 2.3633 0 4.6406 0.26562 6.8281 0.79688s4.2852 1.3242 6.2969 2.375v8.7969c-2.0312-1.3828-4.0391-2.3984-6.0156-3.0469-1.9688-0.64453-4.0469-0.96875-6.2344-0.96875-3.9062 0-6.9844 1.2578-9.2344 3.7656-2.2422 2.5-3.3594 5.9531-3.3594 10.359 0 4.3867 1.1172 7.8359 3.3594 10.344 2.25 2.5 5.3281 3.75 9.2344 3.75 2.1875 0 4.2656-0.32031 6.2344-0.96875 1.9766-0.64453 3.9844-1.6602 6.0156-3.0469z"/>
  </symbol>
  <symbol id="g" overflow="visible">
   <path d="m16.031-40.953v9.0625h10.516v7.2812h-10.516v13.531c0 1.4805 0.28906 2.4805 0.875 3 0.59375 0.52344 1.7656 0.78125 3.5156 0.78125h5.2344v7.2969h-8.7344c-4.0312 0-6.8867-0.83594-8.5625-2.5156-1.6797-1.6875-2.5156-4.5391-2.5156-8.5625v-13.531h-5.0781v-7.2812h5.0781v-9.0625z"/>
  </symbol>
  <symbol id="f" overflow="visible">
   <path d="m26.594-27.234v-17.078h10.266v44.312h-10.266v-4.6094c-1.3984 1.875-2.9453 3.25-4.6406 4.125-1.6875 0.875-3.6406 1.3125-5.8594 1.3125-3.9297 0-7.1562-1.5625-9.6875-4.6875-2.5234-3.125-3.7812-7.1445-3.7812-12.062 0-4.9141 1.2578-8.9375 3.7812-12.062 2.5312-3.125 5.7578-4.6875 9.6875-4.6875 2.1953 0 4.1445 0.44531 5.8438 1.3281 1.707 0.88672 3.2578 2.2578 4.6562 4.1094zm-6.7188 20.656c2.1875 0 3.8516-0.79688 5-2.3906 1.1445-1.5938 1.7188-3.9102 1.7188-6.9531 0-3.0391-0.57422-5.3594-1.7188-6.9531-1.1484-1.5938-2.8125-2.3906-5-2.3906-2.168 0-3.8242 0.79688-4.9688 2.3906-1.1484 1.5938-1.7188 3.9141-1.7188 6.9531 0 3.043 0.57031 5.3594 1.7188 6.9531 1.1445 1.5938 2.8008 2.3906 4.9688 2.3906z"/>
  </symbol>
  <symbol id="e" overflow="visible">
   <path d="m21.875-6.5781c2.1758 0 3.8359-0.79688 4.9844-2.3906 1.1562-1.5938 1.7344-3.9102 1.7344-6.9531 0-3.0391-0.57812-5.3594-1.7344-6.9531-1.1484-1.5938-2.8086-2.3906-4.9844-2.3906-2.1875 0-3.8672 0.80469-5.0312 2.4062-1.168 1.6055-1.75 3.918-1.75 6.9375 0 3.0234 0.58203 5.3359 1.75 6.9375 1.1641 1.6055 2.8438 2.4062 5.0312 2.4062zm-6.7812-20.656c1.4062-1.8516 2.9609-3.2227 4.6719-4.1094 1.707-0.88281 3.6719-1.3281 5.8906-1.3281 3.9375 0 7.1641 1.5625 9.6875 4.6875 2.5195 3.125 3.7812 7.1484 3.7812 12.062 0 4.918-1.2617 8.9375-3.7812 12.062-2.5234 3.125-5.75 4.6875-9.6875 4.6875-2.2188 0-4.1836-0.44531-5.8906-1.3281-1.7109-0.88281-3.2656-2.2539-4.6719-4.1094v4.6094h-10.188v-44.312h10.188z"/>
  </symbol>
  <symbol id="d" overflow="visible">
   <path d="m24.781-35.344c-3.3438 0-5.9375 1.2344-7.7812 3.7031s-2.7656 5.9453-2.7656 10.422c0 4.4609 0.92188 7.9219 2.7656 10.391s4.4375 3.7031 7.7812 3.7031c3.3516 0 5.9531-1.2344 7.7969-3.7031s2.7656-5.9297 2.7656-10.391c0-4.4766-0.92188-7.9531-2.7656-10.422s-4.4453-3.7031-7.7969-3.7031zm0-7.9531c6.832 0 12.188 1.9609 16.062 5.875 3.875 3.9062 5.8125 9.3086 5.8125 16.203 0 6.875-1.9375 12.273-5.8125 16.188-3.875 3.9062-9.2305 5.8594-16.062 5.8594-6.8242 0-12.18-1.9531-16.062-5.8594-3.875-3.9141-5.8125-9.3125-5.8125-16.188 0-6.8945 1.9375-12.297 5.8125-16.203 3.8828-3.9141 9.2383-5.875 16.062-5.875z"/>
  </symbol>
  <symbol id="c" overflow="visible">
   <path d="m4.9062-44.312h10.188v24.125l11.734-11.703h11.844l-15.578 14.625 16.812 17.266h-12.359l-12.453-13.297v13.297h-10.188z"/>
  </symbol>
  <symbol id="b" overflow="visible">
   <path d="m4.9062-31.891h10.188v31.891h-10.188zm0-12.422h10.188v8.3125h-10.188z"/>
  </symbol>
  <symbol id="a" overflow="visible">
   <path d="m43.578-3.1562c-2.7422 1.3242-5.5859 2.3203-8.5312 2.9844-2.9375 0.66406-5.9688 1-9.0938 1-7.0859 0-12.699-1.9766-16.844-5.9375-4.1367-3.957-6.2031-9.3281-6.2031-16.109 0-6.8516 2.1016-12.242 6.3125-16.172 4.2188-3.9375 9.9922-5.9062 17.328-5.9062 2.8203 0 5.5312 0.26562 8.125 0.79688s5.0391 1.3242 7.3438 2.375v8.7969c-2.375-1.3438-4.7422-2.3477-7.0938-3.0156-2.3438-0.66406-4.6953-1-7.0469-1-4.3672 0-7.7305 1.2188-10.094 3.6562-2.3672 2.4375-3.5469 5.9297-3.5469 10.469 0 4.5 1.1406 7.9766 3.4219 10.422 2.2812 2.4492 5.5195 3.6719 9.7188 3.6719 1.1328 0 2.1914-0.066406 3.1719-0.20312 0.97656-0.14453 1.8594-0.36719 2.6406-0.67188v-8.2656h-6.7031v-7.3438h17.094z"/>
  </symbol>
 </defs>
 <g>
  <path d="m570.96 125.07c-6.3086-5.3945-14.328-8.3711-22.633-8.3984h-396.66c-8.207 0.046875-16.137 2.9805-22.402 8.2812-7.9336 6.6094-12.547 16.391-12.598 26.719v256.66c0.003906 8.9961 3.4727 17.645 9.6836 24.152 6.6016 6.9219 15.746 10.844 25.316 10.848h396.66c9.125-0.035156 17.875-3.6367 24.383-10.031 6.7539-6.5586 10.582-15.555 10.617-24.969v-256.66c0.11328-10.098-4.1367-19.754-11.664-26.484zm-430.96 26.602c-0.058594-0.42578-0.058594-0.85938 0-1.2852l140 96.016-140 154.93zm159.71 108.04 30.566 20.883 0.003906-0.003907c5.7969 4 12.672 6.1562 19.715 6.1836 5.2539-0.011719 10.438-1.207 15.168-3.5 1.6016-0.73438 3.1289-1.6367 4.5469-2.6836l30.566-20.883 145.14 160.3h-390.84zm120.29-13.305 140-96.016c0.058594 0.42578 0.058594 0.85938 0 1.2852v249.66zm113.87-106.4-177.33 121.33c-3.9492 2.668-9.1211 2.668-13.07 0l-177.33-121.33z"/>
 </g>
</svg>
