<?xml version="1.0" encoding="UTF-8"?>
<svg width="700pt" height="700pt" version="1.1" viewBox="0 0 700 700" xmlns="http://www.w3.org/2000/svg">
 <path d="m609.88 270.73c-4.7266-8.2266-115.85-183.23-258.65-183.23-142.8 0-253.93 175-258.48 183.23-1.7383 2.7812-2.6602 5.9922-2.6602 9.2734s0.92188 6.4922 2.6602 9.2734c4.5508 8.2266 115.85 183.23 258.48 183.23s253.92-175 258.65-183.23c1.7383-2.7812 2.6602-5.9922 2.6602-9.2734s-0.92188-6.4922-2.6602-9.2734zm-258.65 166.77c-106.23 0-198.45-122.5-222.6-157.5 24.148-35 116.38-157.5 222.6-157.5 106.23 0 198.45 122.5 222.77 157.5-24.324 35-116.55 157.5-222.77 157.5zm-1.2266-262.5c-27.848 0-54.555 11.062-74.246 30.754s-30.754 46.398-30.754 74.246 11.062 54.555 30.754 74.246 46.398 30.754 74.246 30.754 54.555-11.062 74.246-30.754 30.754-46.398 30.754-74.246-11.062-54.555-30.754-74.246-46.398-30.754-74.246-30.754zm0 175c-18.566 0-36.371-7.375-49.496-20.504-13.129-13.125-20.504-30.93-20.504-49.496s7.375-36.371 20.504-49.496c13.125-13.129 30.93-20.504 49.496-20.504s36.371 7.375 49.496 20.504c13.129 13.125 20.504 30.93 20.504 49.496s-7.375 36.371-20.504 49.496c-13.125 13.129-30.93 20.504-49.496 20.504z"/>
</svg>
