<svg width="10" height="10" viewBox="0 0 10 10" fill="none" xmlns="http://www.w3.org/2000/svg">
  <path fill-rule="evenodd" clip-rule="evenodd" d="M7.52672 1.5C7.36706 1.5 7.21394 1.56342 7.10105 1.67632L2.60748 6.16989L2.3237 7.30501L3.45882 7.02123L7.95239 2.52766C8.06529 2.41477 8.12871 2.26165 8.12871 2.10199C8.12871 1.94233 8.06529 1.78921 7.95239 1.67632C7.8395 1.56342 7.68638 1.5 7.52672 1.5ZM6.04039 0.615659C6.43459 0.221459 6.96924 0 7.52672 0C8.0842 0 8.61885 0.221459 9.01305 0.615659C9.40725 1.00986 9.62871 1.54451 9.62871 2.10199C9.62871 2.65947 9.40725 3.19412 9.01305 3.58832L4.37259 8.22878C4.27647 8.3249 4.15604 8.39309 4.02416 8.42606L1.47483 9.06339C1.21924 9.12729 0.948879 9.0524 0.762594 8.86612C0.576308 8.67983 0.501421 8.40947 0.565317 8.15388L1.20265 5.60455C1.23562 5.47267 1.30381 5.35224 1.39993 5.25612L6.04039 0.615659Z" fill="white"/>
</svg>
