<svg width="42" height="34" viewBox="0 0 42 34" fill="none" xmlns="http://www.w3.org/2000/svg">
  <path d="M36.764 0H5.236C2.352 0 0 2.352 0 5.264V28.364C0 31.248 2.352 33.6 5.236 33.6H36.736C39.62 33.6 42 31.248 42 28.336V5.264C42 2.352 39.648 0 36.764 0ZM5.236 4.2H36.736C37.324 4.2 37.8 4.676 37.8 5.264V20.16L31.164 12.432C30.464 11.62 29.428 11.172 28.336 11.144C27.244 11.144 26.236 11.62 25.536 12.46L17.752 21.812L15.204 19.264C13.776 17.836 11.424 17.836 9.996 19.264L4.2 25.06V5.264C4.2 4.676 4.676 4.2 5.236 4.2Z" fill="#BDBDBD"/>
</svg>
