<svg width="18" height="18" viewBox="0 0 18 18" fill="none" xmlns="http://www.w3.org/2000/svg">
<path fill-rule="evenodd" clip-rule="evenodd" d="M7.5 1.75C4.32436 1.75 1.75 4.32436 1.75 7.5C1.75 10.6756 4.32436 13.25 7.5 13.25C9.08803 13.25 10.5245 12.6072 11.5659 11.5659C12.6072 10.5245 13.25 9.08803 13.25 7.5C13.25 4.32436 10.6756 1.75 7.5 1.75ZM0.25 7.5C0.25 3.49594 3.49594 0.25 7.5 0.25C11.5041 0.25 14.75 3.49594 14.75 7.5C14.75 9.23159 14.1422 10.8223 13.1295 12.0688L17.5303 16.4697C17.8232 16.7626 17.8232 17.2374 17.5303 17.5303C17.2374 17.8232 16.7626 17.8232 16.4697 17.5303L12.0688 13.1295C10.8223 14.1422 9.23159 14.75 7.5 14.75C3.49594 14.75 0.25 11.5041 0.25 7.5Z" fill="#BDBDBD"/>
</svg>
